<mxfile host="app.diagrams.net" modified="2021-04-06T11:42:02.198Z" agent="5.0 (Windows NT 10.0; Win64; x64) AppleWebKit/537.36 (KHTML, like Gecko) Chrome/87.0.4280.141 Safari/537.36 OPR/73.0.3856.424" etag="GwJG7NNrRpomqTndZ-ST" version="14.4.9" type="github">
  <diagram id="FF1sZFTqgy5iXIEAyI2X" name="Page-1">
    <mxGraphModel dx="1381" dy="764" grid="1" gridSize="10" guides="1" tooltips="1" connect="1" arrows="1" fold="1" page="1" pageScale="1" pageWidth="827" pageHeight="1169" math="0" shadow="0">
      <root>
        <mxCell id="0" />
        <mxCell id="1" parent="0" />
        <mxCell id="sa98_8_3PbKihjuzfQQO-5" value="Mitarbeiter&lt;br&gt;" style="shape=umlActor;verticalLabelPosition=bottom;verticalAlign=top;html=1;outlineConnect=0;fillColor=#f5f5f5;strokeColor=#666666;fontColor=#333333;" vertex="1" parent="1">
          <mxGeometry x="100" y="160" width="30" height="60" as="geometry" />
        </mxCell>
        <mxCell id="sa98_8_3PbKihjuzfQQO-6" value="Anmelden" style="ellipse;whiteSpace=wrap;html=1;" vertex="1" parent="1">
          <mxGeometry x="240" y="110" width="100" height="60" as="geometry" />
        </mxCell>
        <mxCell id="sa98_8_3PbKihjuzfQQO-11" value="Arbeiten eintragen" style="ellipse;whiteSpace=wrap;html=1;" vertex="1" parent="1">
          <mxGeometry x="304" y="180" width="110" height="60" as="geometry" />
        </mxCell>
        <mxCell id="sa98_8_3PbKihjuzfQQO-13" value="" style="endArrow=none;dashed=1;html=1;dashPattern=1 3;strokeWidth=2;exitX=0.736;exitY=0.033;exitDx=0;exitDy=0;exitPerimeter=0;entryX=0.073;entryY=0.817;entryDx=0;entryDy=0;entryPerimeter=0;" edge="1" parent="1" source="sa98_8_3PbKihjuzfQQO-11" target="sa98_8_3PbKihjuzfQQO-17">
          <mxGeometry width="50" height="50" relative="1" as="geometry">
            <mxPoint x="380" y="150" as="sourcePoint" />
            <mxPoint x="510" y="136.97459439406168" as="targetPoint" />
          </mxGeometry>
        </mxCell>
        <mxCell id="sa98_8_3PbKihjuzfQQO-16" value="&amp;lt;&amp;lt; include &amp;gt;&amp;gt;" style="text;html=1;strokeColor=none;fillColor=none;align=center;verticalAlign=middle;whiteSpace=wrap;rounded=0;rotation=-5;" vertex="1" parent="1">
          <mxGeometry x="414" y="150" width="96" height="20" as="geometry" />
        </mxCell>
        <mxCell id="sa98_8_3PbKihjuzfQQO-17" value="Hilfstabellen" style="ellipse;whiteSpace=wrap;html=1;" vertex="1" parent="1">
          <mxGeometry x="580" y="120" width="110" height="60" as="geometry" />
        </mxCell>
        <mxCell id="sa98_8_3PbKihjuzfQQO-20" style="edgeStyle=orthogonalEdgeStyle;rounded=0;orthogonalLoop=1;jettySize=auto;html=1;exitX=0.5;exitY=0;exitDx=0;exitDy=0;exitPerimeter=0;" edge="1" parent="1" source="sa98_8_3PbKihjuzfQQO-18">
          <mxGeometry relative="1" as="geometry">
            <mxPoint x="115" y="250" as="targetPoint" />
          </mxGeometry>
        </mxCell>
        <mxCell id="sa98_8_3PbKihjuzfQQO-18" value="Administrator&lt;br&gt;" style="shape=umlActor;verticalLabelPosition=bottom;verticalAlign=top;html=1;outlineConnect=0;fillColor=#f5f5f5;strokeColor=#666666;fontColor=#333333;" vertex="1" parent="1">
          <mxGeometry x="100" y="320" width="30" height="60" as="geometry" />
        </mxCell>
        <mxCell id="sa98_8_3PbKihjuzfQQO-21" value="Server&lt;br&gt;" style="shape=umlActor;verticalLabelPosition=bottom;verticalAlign=top;html=1;outlineConnect=0;fillColor=#f8cecc;strokeColor=#b85450;" vertex="1" parent="1">
          <mxGeometry x="1300" y="130" width="30" height="60" as="geometry" />
        </mxCell>
        <mxCell id="sa98_8_3PbKihjuzfQQO-26" value="" style="endArrow=none;html=1;fontColor=#330303;exitX=1;exitY=0.3333333333333333;exitDx=0;exitDy=0;exitPerimeter=0;entryX=0;entryY=0.5;entryDx=0;entryDy=0;" edge="1" parent="1" source="sa98_8_3PbKihjuzfQQO-5" target="sa98_8_3PbKihjuzfQQO-11">
          <mxGeometry width="50" height="50" relative="1" as="geometry">
            <mxPoint x="390" y="390" as="sourcePoint" />
            <mxPoint x="440" y="340" as="targetPoint" />
          </mxGeometry>
        </mxCell>
        <mxCell id="sa98_8_3PbKihjuzfQQO-27" value="" style="endArrow=none;html=1;fontColor=#330303;exitX=0.5;exitY=0;exitDx=0;exitDy=0;exitPerimeter=0;entryX=0;entryY=0.5;entryDx=0;entryDy=0;" edge="1" parent="1" source="sa98_8_3PbKihjuzfQQO-5" target="sa98_8_3PbKihjuzfQQO-6">
          <mxGeometry width="50" height="50" relative="1" as="geometry">
            <mxPoint x="30" y="60" as="sourcePoint" />
            <mxPoint x="200" y="90" as="targetPoint" />
          </mxGeometry>
        </mxCell>
        <mxCell id="sa98_8_3PbKihjuzfQQO-28" value="" style="endArrow=none;html=1;fontColor=#330303;exitX=1;exitY=0.3333333333333333;exitDx=0;exitDy=0;exitPerimeter=0;entryX=0;entryY=0.5;entryDx=0;entryDy=0;" edge="1" parent="1" source="sa98_8_3PbKihjuzfQQO-18" target="sa98_8_3PbKihjuzfQQO-29">
          <mxGeometry width="50" height="50" relative="1" as="geometry">
            <mxPoint x="390" y="390" as="sourcePoint" />
            <mxPoint x="300" y="340" as="targetPoint" />
          </mxGeometry>
        </mxCell>
        <mxCell id="sa98_8_3PbKihjuzfQQO-29" value="Nutzer anlegen" style="ellipse;whiteSpace=wrap;html=1;" vertex="1" parent="1">
          <mxGeometry x="540" y="390" width="110" height="60" as="geometry" />
        </mxCell>
        <mxCell id="sa98_8_3PbKihjuzfQQO-30" value="Stammdaten pflegen" style="ellipse;whiteSpace=wrap;html=1;" vertex="1" parent="1">
          <mxGeometry x="530" y="470" width="130" height="60" as="geometry" />
        </mxCell>
        <mxCell id="sa98_8_3PbKihjuzfQQO-31" value="" style="endArrow=none;html=1;fontColor=#330303;exitX=0.5;exitY=0.5;exitDx=0;exitDy=0;exitPerimeter=0;entryX=0;entryY=0.5;entryDx=0;entryDy=0;" edge="1" parent="1" source="sa98_8_3PbKihjuzfQQO-18" target="sa98_8_3PbKihjuzfQQO-30">
          <mxGeometry width="50" height="50" relative="1" as="geometry">
            <mxPoint x="390" y="380" as="sourcePoint" />
            <mxPoint x="440" y="330" as="targetPoint" />
          </mxGeometry>
        </mxCell>
        <mxCell id="sa98_8_3PbKihjuzfQQO-32" value="" style="endArrow=none;html=1;fontColor=#330303;entryX=0;entryY=0.3333333333333333;entryDx=0;entryDy=0;entryPerimeter=0;exitX=1;exitY=0.5;exitDx=0;exitDy=0;" edge="1" parent="1" source="sa98_8_3PbKihjuzfQQO-29" target="sa98_8_3PbKihjuzfQQO-21">
          <mxGeometry width="50" height="50" relative="1" as="geometry">
            <mxPoint x="390" y="380" as="sourcePoint" />
            <mxPoint x="440" y="330" as="targetPoint" />
          </mxGeometry>
        </mxCell>
        <mxCell id="sa98_8_3PbKihjuzfQQO-33" value="" style="endArrow=none;html=1;fontColor=#330303;entryX=0.5;entryY=0.5;entryDx=0;entryDy=0;entryPerimeter=0;exitX=1;exitY=0.5;exitDx=0;exitDy=0;" edge="1" parent="1" source="sa98_8_3PbKihjuzfQQO-30" target="sa98_8_3PbKihjuzfQQO-21">
          <mxGeometry width="50" height="50" relative="1" as="geometry">
            <mxPoint x="740" y="420" as="sourcePoint" />
            <mxPoint x="790" y="370" as="targetPoint" />
          </mxGeometry>
        </mxCell>
        <mxCell id="sa98_8_3PbKihjuzfQQO-34" value="Web-Panel Anmelden&lt;br&gt;" style="ellipse;whiteSpace=wrap;html=1;" vertex="1" parent="1">
          <mxGeometry x="520" y="320" width="130" height="60" as="geometry" />
        </mxCell>
        <mxCell id="sa98_8_3PbKihjuzfQQO-35" value="" style="endArrow=none;html=1;fontColor=#330303;entryX=0;entryY=0.5;entryDx=0;entryDy=0;exitX=0.75;exitY=0.1;exitDx=0;exitDy=0;exitPerimeter=0;" edge="1" parent="1" source="sa98_8_3PbKihjuzfQQO-18" target="sa98_8_3PbKihjuzfQQO-34">
          <mxGeometry width="50" height="50" relative="1" as="geometry">
            <mxPoint x="390" y="370" as="sourcePoint" />
            <mxPoint x="440" y="320" as="targetPoint" />
          </mxGeometry>
        </mxCell>
        <mxCell id="sa98_8_3PbKihjuzfQQO-36" value="App Ã¶ffnen" style="ellipse;whiteSpace=wrap;html=1;" vertex="1" parent="1">
          <mxGeometry x="220" y="40" width="100" height="60" as="geometry" />
        </mxCell>
        <mxCell id="sa98_8_3PbKihjuzfQQO-37" value="" style="endArrow=none;html=1;fontColor=#330303;exitX=0.5;exitY=0;exitDx=0;exitDy=0;exitPerimeter=0;entryX=0;entryY=0.5;entryDx=0;entryDy=0;" edge="1" parent="1" source="sa98_8_3PbKihjuzfQQO-5" target="sa98_8_3PbKihjuzfQQO-36">
          <mxGeometry width="50" height="50" relative="1" as="geometry">
            <mxPoint x="95" y="110" as="sourcePoint" />
            <mxPoint x="220" y="90" as="targetPoint" />
          </mxGeometry>
        </mxCell>
        <mxCell id="sa98_8_3PbKihjuzfQQO-38" value="" style="endArrow=none;html=1;fontColor=#330303;entryX=0.25;entryY=0.1;entryDx=0;entryDy=0;entryPerimeter=0;exitX=1;exitY=0.5;exitDx=0;exitDy=0;" edge="1" parent="1" source="sa98_8_3PbKihjuzfQQO-36" target="sa98_8_3PbKihjuzfQQO-21">
          <mxGeometry width="50" height="50" relative="1" as="geometry">
            <mxPoint x="390" y="270" as="sourcePoint" />
            <mxPoint x="440" y="220" as="targetPoint" />
          </mxGeometry>
        </mxCell>
        <mxCell id="sa98_8_3PbKihjuzfQQO-39" value="" style="endArrow=none;html=1;fontColor=#330303;entryX=0.25;entryY=0.1;entryDx=0;entryDy=0;entryPerimeter=0;exitX=1;exitY=0.5;exitDx=0;exitDy=0;" edge="1" parent="1" source="sa98_8_3PbKihjuzfQQO-17" target="sa98_8_3PbKihjuzfQQO-21">
          <mxGeometry width="50" height="50" relative="1" as="geometry">
            <mxPoint x="590" y="270" as="sourcePoint" />
            <mxPoint x="640" y="220" as="targetPoint" />
          </mxGeometry>
        </mxCell>
        <mxCell id="sa98_8_3PbKihjuzfQQO-41" value="App verlassen" style="ellipse;whiteSpace=wrap;html=1;" vertex="1" parent="1">
          <mxGeometry x="450" y="250" width="100" height="60" as="geometry" />
        </mxCell>
        <mxCell id="sa98_8_3PbKihjuzfQQO-42" value="" style="endArrow=none;html=1;fontColor=#330303;exitX=0.5;exitY=0.5;exitDx=0;exitDy=0;exitPerimeter=0;entryX=0;entryY=0.5;entryDx=0;entryDy=0;" edge="1" parent="1" source="sa98_8_3PbKihjuzfQQO-5" target="sa98_8_3PbKihjuzfQQO-41">
          <mxGeometry width="50" height="50" relative="1" as="geometry">
            <mxPoint x="590" y="270" as="sourcePoint" />
            <mxPoint x="640" y="220" as="targetPoint" />
          </mxGeometry>
        </mxCell>
        <mxCell id="sa98_8_3PbKihjuzfQQO-43" value="" style="endArrow=none;html=1;fontColor=#330303;exitX=1;exitY=0.5;exitDx=0;exitDy=0;entryX=0.25;entryY=0.1;entryDx=0;entryDy=0;entryPerimeter=0;" edge="1" parent="1" source="sa98_8_3PbKihjuzfQQO-41" target="sa98_8_3PbKihjuzfQQO-21">
          <mxGeometry width="50" height="50" relative="1" as="geometry">
            <mxPoint x="590" y="270" as="sourcePoint" />
            <mxPoint x="640" y="220" as="targetPoint" />
          </mxGeometry>
        </mxCell>
        <mxCell id="sa98_8_3PbKihjuzfQQO-44" value="Falsche Daten" style="ellipse;whiteSpace=wrap;html=1;" vertex="1" parent="1">
          <mxGeometry x="450" y="90" width="100" height="60" as="geometry" />
        </mxCell>
        <mxCell id="sa98_8_3PbKihjuzfQQO-45" value="" style="endArrow=none;dashed=1;html=1;dashPattern=1 3;strokeWidth=2;exitX=1;exitY=0.5;exitDx=0;exitDy=0;entryX=0;entryY=0.5;entryDx=0;entryDy=0;" edge="1" parent="1" source="sa98_8_3PbKihjuzfQQO-6" target="sa98_8_3PbKihjuzfQQO-44">
          <mxGeometry width="50" height="50" relative="1" as="geometry">
            <mxPoint x="350.00000000000006" y="140.99" as="sourcePoint" />
            <mxPoint x="485.04" y="139.01" as="targetPoint" />
          </mxGeometry>
        </mxCell>
        <mxCell id="sa98_8_3PbKihjuzfQQO-46" value="&amp;lt;&amp;lt; exclude &amp;gt;&amp;gt;" style="text;html=1;strokeColor=none;fillColor=none;align=center;verticalAlign=middle;whiteSpace=wrap;rounded=0;rotation=-10;" vertex="1" parent="1">
          <mxGeometry x="340" y="110" width="96" height="20" as="geometry" />
        </mxCell>
        <mxCell id="sa98_8_3PbKihjuzfQQO-48" value="" style="endArrow=none;html=1;fontColor=#330303;exitX=1;exitY=0.5;exitDx=0;exitDy=0;entryX=0.25;entryY=0.1;entryDx=0;entryDy=0;entryPerimeter=0;" edge="1" parent="1" source="sa98_8_3PbKihjuzfQQO-44" target="sa98_8_3PbKihjuzfQQO-21">
          <mxGeometry width="50" height="50" relative="1" as="geometry">
            <mxPoint x="660" y="170" as="sourcePoint" />
            <mxPoint x="710" y="120" as="targetPoint" />
          </mxGeometry>
        </mxCell>
        <mxCell id="sa98_8_3PbKihjuzfQQO-49" value="" style="endArrow=none;html=1;fontColor=#330303;exitX=1;exitY=0.5;exitDx=0;exitDy=0;entryX=0.25;entryY=0.1;entryDx=0;entryDy=0;entryPerimeter=0;" edge="1" parent="1" source="sa98_8_3PbKihjuzfQQO-11" target="sa98_8_3PbKihjuzfQQO-21">
          <mxGeometry width="50" height="50" relative="1" as="geometry">
            <mxPoint x="660" y="170" as="sourcePoint" />
            <mxPoint x="710" y="120" as="targetPoint" />
          </mxGeometry>
        </mxCell>
      </root>
    </mxGraphModel>
  </diagram>
</mxfile>
